<svg width="320" height="160" viewBox="0 0 320 160" fill="none" xmlns="http://www.w3.org/2000/svg">
<rect width="320" height="160" fill="#D52026"/>
<path d="M142.4 73.0001L138 77.4001C141 80.4001 142 81.8001 142.2 83.2001C142.4 83.0001 146.4 79.6001 146.4 78.4001C146.4 76.6001 145.2 76.0001 142.4 73.0001ZM98 100H83C83 100 85.6 102.2 85.6 106.8V124.8C85.6 129.4 87.4 129.4 87.4 129.4H102C105.4 129.4 106.4 127 106.4 125.8V124C106.4 124 105.4 126.2 101 126.2H94C91.8 126.2 92 124.4 91.8 122.8V112.8H96.8C98.4 112.8 100 113 101.6 113.8C101.6 113.8 100 109.8 95 109.8H91.8V106.6C91.8 106.6 91.8 103.8 91.2 103H95.8C99.8 103 102.8 103 106 105C106.2 105.4 105.6 100 98 100ZM121.2 105.8C116.4 105.8 115.2 110.4 115.2 110.4C115.2 110.4 115 106 111.2 106H107.4C107.4 106 109.6 106.8 109.6 110.6V124.6C109.6 129.2 111.4 129.4 111.4 129.4H117.6C117.4 129.4 115.2 127.6 115.2 124.6V112.2C115.2 111.6 116.2 109.8 118.8 109.8C120.4 109.8 122 111.4 122 113.2V124.8C122 129.6 123.8 129.6 123.8 129.6H130C130 129.6 127.6 128 127.6 124.8V112.4C127.8 111.8 128.6 110 131 110C132.8 110 134.4 111.6 134.4 113.4V125C134.4 129.6 136.2 129.6 136.2 129.6H142.4C142.4 129.6 140 128 140 124.8V112.2C140 107.2 136 106 133 106C129 106 127.8 109.4 127.4 110.4C126.8 107.2 123.8 105.8 121.2 105.8ZM147.2 106H143.4C143.4 106 145.6 107 145.6 110.6V124.6C145.6 129.2 147.4 129.2 147.4 129.2H153.6C153.6 129.2 151.2 127.6 151.2 124.4V111C151.2 106 148.4 106 147.2 106ZM158.2 106H154.4C154.4 106 156.6 106.8 156.6 110.6V124.6C156.6 129.2 158.4 129.4 158.4 129.4H164.6C164.4 129.4 162.2 127.6 162.2 124.6V113C162.4 112 163 111.2 163.8 110.6C164.6 110 165.6 109.8 166.6 109.8C168 109.8 169.4 110.4 170.4 111.6V107.6C170.4 107.6 169.8 106 167.2 106C163.4 106 162.4 110.6 162.4 110.6C162 107 161 106 158.2 106ZM197.6 100.6C197.6 100.6 196.2 103 193.4 105.2C191.6 106.6 188 108.4 188 108.4H192V124.8C192 129.4 193.8 129.4 193.8 129.4H200C200 129.4 197.6 127.8 197.6 124.8V108.6H199.2C201.2 108.6 202.8 109.6 202.8 109.6V106H197.6V100.6ZM213 106C206.6 106 203.2 112 203.2 118.4C203.2 124.8 207.4 129.6 213.4 129.6C218.4 129.6 220 127.8 220 127.8V124C218.6 126.4 216.8 127 215.2 127C214.299 126.998 213.411 126.793 212.6 126.4C209.8 125.2 209.4 121.6 209.4 121.6C211.6 119 214.4 119.6 217.8 115.8C222.6 111 219.2 106 213 106ZM209.2 119C209.2 119 208.4 108.2 212.4 107.8H212.6C215.8 107.8 215 112.4 214 114.2C212.6 117.2 210.6 117.4 209.2 119ZM148.4 98.4001C146.8 98.4001 145.6 99.6001 145.6 101.2C145.6 102.8 146.8 104 148.4 104C150 104 151.2 102.8 151.2 101.2C151.2 99.6001 150 98.4001 148.4 98.4001ZM178.8 106C175.2 106 173 107.8 173 107.8V111.8C173 111.8 174.2 108.6 177.6 108.6C180.8 108.6 181 110.2 181 111C181 111 181.4 112 180.6 113.4C179.2 116 168 116.4 169.6 125.2C170.2 128.6 172.6 129.6 175.4 129.6C178.2 129.6 179.8 128.2 180.6 126.8C181 129.4 182.4 129.6 182.4 129.6H188.6C188.6 129.6 186.2 128 186.2 125V111.8C186 108.4 182.6 106 178.8 106ZM176.8 126.8C175.4 126.8 174.4 125.4 174.4 123.8C174.4 118 179.2 117.2 180.4 115.6V125.4C179.8 126 179.2 126.8 176.8 126.8ZM229.6 105.8C225.8 105.8 222.6 108.2 222.6 111.4C222.6 114.2 223.8 116 226 117.6L229.2 119.6C231 120.6 231.6 121.8 231.6 123C231.6 124.6 230.2 126.8 227 126.8C223.8 126.8 222.4 123.4 222.4 123.4V127.6C222.4 127.6 224.8 129.2 228.2 129.2C232.4 129.2 236.8 126 236.6 121.6C236.6 120 236 118.6 235.2 117.6C233.8 115.6 231.2 114.4 229.2 113C228 112.2 227.4 111 227.4 110.6C227.4 109.8 227.8 108.2 231 108.2C234 108.2 235.4 111.4 235.4 111.4V107.4C235.4 107.8 233.2 105.8 229.6 105.8ZM132.4 65.2001H130C130 65.2001 132.4 66.6001 132.4 69.8001V80.6001C132.4 87.6001 138.2 94.2001 145.2 94.2001H151C154.6 94.2001 155.8 93.4001 157.8 91.4001L160 89.2001C161.2 87.8001 162.6 86.8001 162.6 83.0001V79.4001C162.6 76.4001 160.8 75.0001 160 74.2001L158 72.2001V79.4001C158 79.4001 159.4 81.0001 160.2 81.4001C163.2 83.8001 160.8 88.0001 158 88.0001H145.2H145C139 87.8001 134.2 82.8001 134 76.8001V71.0001C134 65.2001 132.4 65.2001 132.4 65.2001ZM151.2 73.0001L146.8 77.4001C149.8 80.4001 150.8 81.8001 151 83.2001C151.2 83.0001 155.2 79.6001 155.2 78.4001C155.2 76.6001 154 75.8001 151.2 73.0001ZM160.2 23.6001L157.2 26.6001C156 27.8001 156.4 30.2001 158.8 32.6001V38.6001C158.8 39.2001 158.2 39.8001 158.2 39.8001C158.2 39.8001 154.6 36.6001 151.4 36.6001H146.6C143.6 36.6001 141.2 39.4001 140.8 39.6001C139.2 41.2001 139.2 44.2001 140.4 45.6001L143.8 49.0001C143.8 49.0001 143 43.6001 143.8 40.0001C144 39.2001 145 38.2001 146 38.2001L153.8 44.2001L144.8 53.6001C144.4 54.0001 143.2 54.8001 142 54.8001C140.6 54.8001 140 54.0001 139.4 53.2001V57.6001C139.4 59.0001 141.4 60.6001 143.2 60.6001H155.2C156 60.6001 157 60.4001 157.8 59.6001L161.8 55.6001C162.4 55.0001 162.6 54.2001 162.6 53.2001V48.6001C162.6 44.2001 159.2 40.8001 159.2 40.8001C159.2 40.8001 160 40.2001 160 38.4001V33.8001C160 33.8001 161.4 35.2001 161.6 35.8001L164.2 33.2001C165.4 32.0001 163.4 29.8001 162.6 28.8001C160.2 26.2001 160.2 23.6001 160.2 23.6001ZM145.2 55.2001C146.4 54.6001 146.6 54.2001 147.6 53.0001L155.2 45.0001C155.2 45.0001 159.4 49.4001 160.8 51.8001C161.4 53.0001 162.2 55.2001 158.6 55.2001H145.2ZM135 46.0001H132.8C134.2 46.8001 135.2 49.2001 135.2 50.6001V59.4001C135.2 61.8001 137 70.4001 144.8 70.4001H167.4V84.8001C167.4 87.2001 166.6 88.6001 166 89.2001L162.6 92.4001H164.2L170.4 86.8001C171.6 85.4001 173 84.0001 173 79.6001V70.4001L175.6 67.8001L180 63.6001C180 67.2001 181.8 68.8001 183.4 68.8001C184.289 68.7433 185.134 68.3914 185.8 67.8001L189.8 64.0001C191.6 62.2001 192.6 56.6001 188.2 56.6001C185.4 56.6001 182.2 60.6001 182 61.0001C181 60.4001 180.2 59.0001 180.2 59.0001V62.4001C179.8 63.0001 178 64.4001 176.6 64.4001H173V61.0001C173 59.4001 173.6 57.6001 174.4 56.8001L177.8 53.6001H176.2L169.4 59.8001C168.2 61.2001 167.4 63.8001 167.4 64.4001H141.8C138.6 64.4001 136.6 61.2001 136.6 58.6001V52.0001C136.6 46.6001 135.2 46.0001 135 46.0001ZM186.8 65.2001C186.2 65.2001 185.6 65.0001 184.8 64.4001C184 63.8001 182.6 61.8001 182.6 61.8001C183 61.4001 184.2 61.0001 185.2 61.0001C186 61.0001 186.8 61.2001 187 61.6001C188.4 63.4001 188.2 65.2001 186.8 65.2001ZM176.2 23.6001L169.4 29.8001C169 30.2001 167.4 32.6001 167.4 35.4001V53.2001C167.4 54.4001 166.6 56.2001 166 56.8001L162.6 60.0001H164.2L170.6 54.2001C171.4 53.4001 173 51.4001 173 48.0001V31.0001C173 28.4001 174.2 27.0001 174.8 26.4001L177.8 23.6001H176.2ZM177.2 69.2001V76.2001L179.6 78.8001C181.6 80.8001 181.4 84.6001 175.4 90.4001C173.266 92.687 170.324 94.0505 167.2 94.2001H156.4L162.8 99.8001H167.2C171.6 99.8001 175.6 98.0001 178.2 95.2001C180.6 92.6001 182 89.2001 181.8 85.6001V76.4001C181.8 73.2001 179.8 71.4001 179.4 71.0001C179 71.0001 177.2 69.2001 177.2 69.2001Z" fill="white"/>
</svg>