<svg width="320" height="160" viewBox="0 0 320 160" fill="none" xmlns="http://www.w3.org/2000/svg">
<rect width="320" height="160" fill="#181716"/>
<path d="M172.039 70.7198C172.039 65.4498 172.13 60.5432 172.403 56L158.501 58.635V59.9071L159.864 60.0888C160.863 60.1797 161.499 60.5432 161.863 61.0883C162.226 61.7244 162.499 62.633 162.68 63.996C162.862 66.631 163.044 72.628 162.953 82.0777C162.953 91.4366 162.862 97.3428 162.68 99.6143C167.678 100.705 171.585 101.159 174.493 101.159C179.944 101.159 184.215 99.6143 187.304 96.4341C190.394 93.3448 192.029 88.9833 192.029 83.6224C192.029 79.3518 190.848 75.8082 188.486 72.9914C186.123 70.1747 183.125 68.8117 179.581 68.8117C177.219 68.8117 174.765 69.4478 172.039 70.7198ZM172.312 98.7057C172.13 95.7981 171.949 87.0752 171.949 72.8097C172.766 72.5371 173.857 72.3554 175.22 72.3554C177.4 72.3554 179.127 73.4457 180.399 75.7173C181.671 77.9889 182.307 80.7148 182.307 84.1676C182.307 88.4382 181.58 91.891 180.126 94.7986C178.672 97.6153 176.855 99.0692 174.584 99.0692C173.857 98.8874 173.13 98.7966 172.312 98.7057ZM106.345 56.9086H70V58.7259L71.9081 58.9076C73.3619 59.1802 74.3614 59.7254 74.9975 60.5432C75.6335 61.4518 75.997 62.9056 76.0878 64.9046C76.8147 74.7178 76.8147 83.895 76.0878 92.3453C75.9061 94.3443 75.5427 95.7981 74.9975 96.7067C74.3614 97.6153 73.3619 98.1605 71.9081 98.3423L70 98.6148V100.432H93.4427V98.6148L90.9894 98.4331C89.5356 98.2514 88.5361 97.6153 87.9001 96.7976C87.264 95.8889 86.9006 94.4351 86.8097 92.4361C86.5371 88.8016 86.3554 84.6219 86.3554 79.9879L91.262 80.0787C93.897 80.1696 95.7143 82.1686 96.6229 86.1666H98.4402V71.3559H96.6229C95.7143 75.263 93.9879 77.262 91.262 77.3529L86.3554 77.4437C86.3554 69.266 86.5371 63.4508 86.8097 59.9071H93.9879C99.0762 59.9071 102.529 63.1782 104.528 69.7203L106.709 69.0843L106.345 56.9086ZM102.075 84.8945C102.075 89.6194 103.438 93.5265 106.073 96.6159C108.708 99.7052 112.615 101.159 117.521 101.159C122.428 101.159 126.426 99.6143 129.334 96.4341C132.241 93.3448 133.604 89.4377 133.604 84.7128C133.604 79.9879 132.241 76.0808 129.606 72.9914C126.971 69.9021 123.064 68.4483 118.157 68.4483C113.251 68.4483 109.253 69.9929 106.345 73.1731C103.438 76.2625 102.075 80.1696 102.075 84.8945ZM122.337 74.5361C123.428 77.1711 123.882 80.6239 123.882 84.8036C123.882 94.4351 121.883 99.16 117.976 99.16C115.977 99.16 114.432 97.7971 113.342 95.0712C112.251 92.3453 111.797 88.8925 111.797 84.8036C111.797 75.263 113.796 70.5381 117.703 70.5381C119.702 70.4472 121.247 71.8102 122.337 74.5361ZM199.117 96.6159C202.115 99.6143 205.931 101.159 210.475 101.159C213.291 101.159 215.745 100.614 217.925 99.4326C220.106 98.3423 221.832 96.9793 223.014 95.3438L222.105 94.2534C220.106 95.7981 217.834 96.525 215.199 96.525C211.565 96.525 208.748 95.3438 206.84 92.8905C204.841 90.4372 203.932 87.3478 204.114 83.3498H223.559C223.559 78.9884 222.468 75.4447 220.197 72.628C217.925 69.9021 214.745 68.5391 210.656 68.5391C205.568 68.5391 201.661 70.1747 198.844 73.3549C196.027 76.5351 194.664 80.4422 194.664 85.0762C194.664 89.8011 196.118 93.6174 199.117 96.6159ZM205.84 73.8092C206.84 71.6285 208.112 70.5381 209.838 70.5381C212.564 70.5381 213.927 73.9909 213.927 80.9874L204.296 81.1691C204.387 78.4432 204.841 75.9899 205.84 73.8092ZM248.001 70.1747C245.548 69.0843 242.458 68.4483 238.733 68.4483C234.917 68.4483 231.918 69.4478 229.647 71.3559C227.375 73.264 226.194 75.6265 226.194 78.4432C226.194 80.8965 226.921 82.8046 228.284 84.1676C229.647 85.5305 231.827 86.7118 234.644 87.7113C237.188 88.6199 239.006 89.5285 239.914 90.3463C240.823 91.2549 241.368 92.2544 241.368 93.6174C241.368 94.8895 240.914 96.0707 239.914 96.9793C239.006 97.9788 237.733 98.4331 236.098 98.4331C232.1 98.4331 229.101 95.5255 227.012 89.7102L225.467 90.1646L225.83 99.2509C229.101 100.523 232.736 101.159 236.734 101.159C240.914 101.159 244.094 100.25 246.456 98.3423C248.819 96.525 250 93.89 250 90.6189C250 88.4382 249.455 86.6209 248.274 85.258C247.092 83.895 245.184 82.7138 242.458 81.6234C239.46 80.5331 237.37 79.5336 236.28 78.6249C235.189 77.7163 234.644 76.6259 234.644 75.263C234.644 73.9001 235.008 72.8097 235.825 71.9011C236.643 70.9924 237.643 70.629 238.915 70.629C242.549 70.629 245.184 73.264 246.82 78.4432L248.364 77.9889L248.001 70.1747ZM160.591 69.3569C159.319 68.7208 157.956 68.4483 156.411 68.4483C154.866 68.4483 153.322 69.0843 151.595 70.3564C149.869 71.6285 148.597 73.3549 147.597 75.7173L147.688 68.4483L133.877 71.1742V72.4462L135.24 72.5371C136.966 72.7188 137.966 74.0818 138.147 76.5351C138.693 82.1686 138.693 88.1656 138.147 94.526C137.966 96.9793 136.966 98.2514 135.24 98.524L133.877 98.7057V100.432H153.14V98.7057L150.687 98.524C148.96 98.3423 147.961 96.9793 147.779 94.526C147.234 89.2559 147.143 83.6224 147.597 77.8072C148.142 76.8985 149.324 76.3534 151.141 76.1716C152.958 75.9899 155.048 76.5351 157.229 77.8072L160.591 69.3569Z" fill="white"/>
</svg>