<svg width="320" height="160" viewBox="0 0 320 160" fill="none" xmlns="http://www.w3.org/2000/svg">
<rect width="320" height="160" fill="#231F20"/>
<path fill-rule="evenodd" clip-rule="evenodd" d="M133.603 47.0163C130.978 47.5738 129.631 49.4108 127.477 50.4398C124.064 53.1531 121.121 56.3354 118.108 59.4488C116.187 60.5908 114.891 62.358 113.423 63.9533C113.157 64.047 112.969 64.2199 112.702 64.3136C111.479 67.2947 108.904 68.9239 107.297 71.5208C107.237 71.5208 107.177 71.5208 107.117 71.5208C104.53 71.7102 102.207 70.2252 100.09 69.3587C99.8942 69.314 99.9675 69.0003 99.7295 68.9983C100.139 62.8562 104.055 58.6738 107.117 54.5839C107.227 54.5736 107.33 54.5569 107.297 54.4037C110.873 50.4187 116.28 44.4751 122.072 41.9713C123.582 41.3183 125.949 40.8077 127.477 41.0704C129.49 41.4163 133.053 44.6207 133.603 47.0163Z" fill="#E1221D"/>
<path fill-rule="evenodd" clip-rule="evenodd" d="M83.6938 49.3587C84.5385 49.0588 86.6328 49.0588 87.4776 49.3587C86.2164 49.3587 84.9551 49.3587 83.6938 49.3587Z" fill="#B6B3B1"/>
<path fill-rule="evenodd" clip-rule="evenodd" d="M162.432 50.6199C162.432 56.806 162.432 62.9921 162.432 69.1784C162.132 63.4125 162.132 56.3858 162.432 50.6199Z" fill="#B6B3B1"/>
<path fill-rule="evenodd" clip-rule="evenodd" d="M72.3425 52.0613C72.3425 52.7821 72.3425 53.5028 72.3425 54.2235C72.0436 53.9127 72.0436 52.3722 72.3425 52.0613Z" fill="#B6B3B1"/>
<path fill-rule="evenodd" clip-rule="evenodd" d="M223.333 52.2415C223.633 53.2657 223.633 55.5417 223.333 56.5658C223.333 55.1244 223.333 53.683 223.333 52.2415Z" fill="#B6B3B1"/>
<path fill-rule="evenodd" clip-rule="evenodd" d="M230.54 57.1064C236.786 57.2266 243.513 56.8662 249.459 57.2866C243.212 57.1666 236.486 57.5268 230.54 57.1064Z" fill="#B6B3B1"/>
<path fill-rule="evenodd" clip-rule="evenodd" d="M230.54 62.3316C236.486 61.9113 243.212 62.2714 249.459 62.1514C243.513 62.5718 236.786 62.2116 230.54 62.3316Z" fill="#B6B3B1"/>
<path fill-rule="evenodd" clip-rule="evenodd" d="M107.117 71.5208C107.177 71.5208 107.237 71.5208 107.297 71.5208C107.181 72.3651 107.533 73.6783 107.117 74.2235C107.117 73.3226 107.117 72.4217 107.117 71.5208Z" fill="#B6B3B1"/>
<path fill-rule="evenodd" clip-rule="evenodd" d="M131.441 73.1425C132.593 73.9136 132.934 77.0545 133.243 79.2686C134.279 78.158 135.637 76.4315 134.685 74.4037C134.719 74.2578 134.865 74.2241 134.865 74.0434C135.025 74.1232 135.187 74.2016 135.225 74.4037C134.707 75.5862 136.357 76.1522 136.667 77.1064C135.598 78.6889 137.32 82.7189 134.504 82.8722C135.323 84.0358 135.928 85.4127 136.667 86.656C136.175 86.5246 136.304 87.014 135.946 87.0163C136.451 88.1253 138.115 89.4077 137.027 90.9803C138.787 92.043 140.888 92.7648 142.613 93.8632C142.699 94.43 142.356 94.5675 142.252 94.9443C140.293 93.7646 138.213 93.5954 135.586 93.3226C135.318 93.4752 135.325 93.9026 135.225 94.2235C136.988 95.836 139.163 93.9421 141.351 95.3046C141.539 95.8151 141.539 96.0554 141.351 96.5659C140.466 96.4778 138.999 96.0486 138.649 96.9262C137.459 95.9542 134.586 96.6644 132.883 96.2055C131.516 94.8235 132.428 92.9816 132.522 90.8001C131.977 89.3032 130.355 88.8832 130 87.1965C128.055 86.6192 126.941 85.2104 125.495 84.1334C125.69 82.9176 125.178 82.4086 124.955 81.6109C125.628 82.4394 126.35 83.219 127.297 83.7731C126.646 82.1295 124.602 80.959 124.414 79.4488C125.534 79.4706 125.808 80.338 126.396 80.8902C126.352 81.0859 126.038 81.0125 126.036 81.2506C126.947 82.2861 127.954 84.8619 129.279 84.3136C128.608 83.2552 127.526 83.1727 127.658 81.7911C127.803 80.2617 129.838 79.6021 131.081 80.8902C131.081 81.3707 131.081 81.8511 131.081 82.3316C131.86 82.5729 132.624 81.394 133.063 80.71C132.882 78.1888 131.87 76.4974 131.441 74.2235C131.787 74.2034 131.23 73.6201 131.441 73.1425ZM133.964 81.0702C134.68 81.0614 135.563 78.7102 135.045 77.4666C134.726 78.4942 133.184 80.1361 133.964 81.0702Z" fill="#E1221D"/>
<path fill-rule="evenodd" clip-rule="evenodd" d="M84.7747 74.5839C85.4355 74.5839 86.0962 74.5839 86.7567 74.5839C86.3409 74.5331 85.2003 74.5852 84.7747 74.5839Z" fill="#B6B3B1"/>
<path fill-rule="evenodd" clip-rule="evenodd" d="M114.504 83.9533C114.504 81.1304 114.504 78.3077 114.504 75.4848C115.99 75.6805 117.443 75.9093 118.649 76.3857C119.864 77.1521 120.848 78.1499 121.892 79.0884C123.269 81.3092 124.54 84.6773 124.775 88.4578C125.168 94.7966 123.65 102.614 126.576 106.296C130.951 111.8 145.636 111.226 148.198 104.854C148.489 104.131 148.659 103.1 148.739 102.332C149.87 91.3746 145.917 75.9009 159.009 75.665C159.009 77.2866 159.009 78.9083 159.009 80.5299C159.685 79.9434 160.764 78.2027 161.891 77.4668C165.982 75.0322 172.883 75.4848 179.729 75.4848C186.084 75.4848 193.248 75.5241 196.306 78.7281C200.502 83.1256 199.098 93.8284 191.981 94.4038C196.442 95.7692 200.03 98.0066 200.63 103.233C205.428 94.2171 209.546 84.5207 214.324 75.4848C217.988 75.4848 221.651 75.4848 225.315 75.4848C230.458 85.8971 235.295 96.616 240.63 106.836C240.63 96.3856 240.63 85.9353 240.63 75.4848C244.053 75.4848 247.477 75.4848 250.9 75.4848C250.9 89.2985 250.9 103.112 250.9 116.926C244.734 116.527 238.113 117.901 234.144 115.485C231.872 114.103 231.469 111.848 230.36 109.179C223.273 109.179 216.186 109.179 209.099 109.179C207.706 115.25 203.23 117.646 194.684 116.926C193.767 116.569 195.29 115.803 195.225 115.124C186.557 118.729 170.096 116.142 157.928 116.926C157.928 114.043 157.928 111.161 157.928 108.277C152.653 121.975 119.268 121.936 115.405 107.016C112.04 112.561 107.046 116.076 98.6484 116.746C90.7041 117.38 81.2463 116.647 72.5223 116.926C72.8266 104.978 71.8792 91.7787 73.0629 80.7099C73.68 79.7656 74.1528 78.6767 74.8647 77.827C79.3016 74.3457 90.489 75.282 98.4683 75.6648C106.121 76.0321 111.313 79.2611 114.504 83.9533ZM168.198 91.8811C174.412 91.5493 182.041 92.631 187.117 91.1603C188.911 90.1299 189.371 85.6937 187.837 83.9531C183.418 81.4659 174.76 83.2173 168.378 82.6919C167.958 85.3949 168.318 88.8778 168.198 91.8811ZM82.9731 83.4126C82.9731 92.1214 82.9731 100.83 82.9731 109.539C89.505 108.93 96.1609 110.648 100.991 108.818C108.817 105.853 109.478 90.9785 103.874 85.2144C99.7167 81.6841 90.5124 83.2007 83.1533 82.872C82.9432 82.9025 82.9576 83.1569 82.9731 83.4126ZM212.342 101.791C217.146 101.791 221.951 101.791 226.756 101.791C224.51 96.109 221.649 91.0427 219.549 85.2144C217.618 91.2115 214.686 96.2066 212.342 101.791ZM168.198 99.6288C168.198 102.992 168.198 106.355 168.198 109.719C175.097 109.171 184.413 111.039 189.099 108.277C190.981 106.348 190.933 101.342 188.738 99.809C183.248 98.2726 175.029 99.4647 168.378 99.0883C168.168 99.1185 168.182 99.3731 168.198 99.6288Z" fill="#B6B3B1"/>
<path fill-rule="evenodd" clip-rule="evenodd" d="M121.712 72.7821C120.555 71.7761 119.474 70.695 118.468 69.5388L121.712 72.7821Z" fill="#B6B3B1"/>
<path fill-rule="evenodd" clip-rule="evenodd" d="M164.414 45.5749C167.298 45.2747 171.441 45.2747 174.324 45.5749C171.021 45.5749 167.717 45.5749 164.414 45.5749Z" fill="#F2F1F3"/>
<path fill-rule="evenodd" clip-rule="evenodd" d="M107.117 54.5839C104.056 58.6738 100.14 62.8561 99.7297 68.9983C97.436 72.8907 93.0005 74.6413 86.7568 74.5839C86.096 74.5839 85.4355 74.5839 84.7748 74.5839C77.1611 74.6302 72.744 71.4795 70 66.6559C71.5872 66.217 73.9272 65.0347 76.1261 65.5749C77.3468 65.8749 78.2103 67.1727 79.5495 67.9172C83.0982 69.8898 92.7083 70.8604 93.4234 65.2145C92.1784 62.032 87.853 62.4945 84.5946 61.9712C79.1533 61.0976 73.0056 59.9988 72.3423 54.2235C72.3423 53.5028 72.3423 52.7821 72.3423 52.0613C73.6445 40.8446 95.9953 42.5334 100.27 49.8992C100.812 47.2577 102.487 45.75 105.495 45.5749C105.984 45.6864 106.926 45.3462 107.117 45.755M83.6939 49.3586C81.3243 49.6916 78.7928 50.2813 79.1894 52.9622C79.5548 55.4318 84.6157 55.6395 87.838 56.2055C91.909 56.9206 95.0987 57.61 97.2074 58.728C98.3564 59.6812 99.3216 60.8181 100.09 62.1514C100.09 58.4878 100.09 54.8242 100.09 51.1604C98.2717 51.624 96.5948 52.2294 94.1443 52.0613C92.1991 50.8833 90.4429 49.5165 87.4777 49.3586" fill="#F2F1F3"/>
<path fill-rule="evenodd" clip-rule="evenodd" d="M118.468 69.5389C116.79 67.6733 115.075 65.8455 113.423 63.9533C114.891 62.3582 116.187 60.5908 118.108 59.4488C119.174 60.665 120.315 61.8063 121.531 62.8722C121.718 63.3464 122.246 63.4791 122.432 63.9533C123.498 65.1697 124.64 66.3108 125.856 67.3767C126.105 67.9084 126.688 68.1061 126.937 68.638C128.003 69.8542 129.144 70.9953 130.36 72.0614C130.645 72.4978 131.005 72.8582 131.441 73.1425C131.23 73.6201 131.787 74.2034 131.441 74.2236C127.877 74.0648 123.315 74.9025 121.712 72.7821C120.706 71.6257 119.625 70.5446 118.468 69.5389Z" fill="#F2F1F3"/>
<path fill-rule="evenodd" clip-rule="evenodd" d="M193.603 45.5748C196.934 45.3073 199.036 46.2678 200.81 47.5568C204.652 52.9646 206.826 60.0399 209.279 66.8361C212.443 60.3311 214.19 52.408 218.468 47.0163C220.124 45.7293 222.907 45.5691 225.675 45.3947C226.036 45.7772 225.419 46.1976 225.315 46.6559C226.389 46.2287 227.125 45.4628 228.738 45.5748C235.777 45.3675 242.912 45.3947 249.999 45.3947C250.185 46.8965 250.418 49.4774 249.999 50.8001C243.633 50.9201 236.561 50.8001 230.54 50.8001C230.54 52.9022 230.54 55.0042 230.54 57.1064C236.584 57.1603 243.212 57.1666 249.459 57.2866C249.459 58.9082 249.459 60.5298 249.459 62.1514C243.167 62.359 236.442 62.3208 230.54 62.3316C230.54 64.5538 230.54 66.7761 230.54 68.9983C236.968 69.4175 244.173 69.0592 250.9 69.1785C250.9 70.8601 250.9 72.5419 250.9 74.2235C241.711 74.2235 232.522 74.2235 223.333 74.2235C223.333 68.3375 223.333 62.4518 223.333 56.5658C223.333 55.5478 223.207 53.7655 223.333 52.2415C223.333 51.9412 223.333 51.641 223.333 51.3406C219.812 58.8709 216.385 66.4943 213.062 74.2235C209.996 74.4669 207.747 73.8936 206.036 72.7821C203.197 69.2867 200.934 63.6849 198.828 59.0884C197.066 55.2408 195.497 51.3035 193.783 47.5568C193.363 56.0853 193.723 65.3945 193.603 74.2235C191.201 74.2235 188.798 74.2235 186.396 74.2235C186.396 70.7401 186.396 67.2565 186.396 63.773C184.564 69.5538 180.856 73.8116 173.783 74.2235C168.057 74.557 161.617 74.2381 155.225 74.2235C155.225 66.4757 155.225 58.728 155.225 50.9803C153.205 54.6176 150.686 58.4994 148.198 62.8721C145.831 67.0327 143.846 73.3435 138.288 74.2235C136.339 74.306 134.955 74.0293 133.964 74.0433C135.402 71.1581 137.108 68.5386 138.648 65.755C135.291 60.2837 130.975 55.7709 127.477 50.4397C129.631 49.4107 130.977 47.5738 133.603 47.0163C136.538 51.0484 139.228 55.3257 142.432 59.0884C145.384 54.9534 147.141 49.6233 150.72 46.1154C152.655 45.5273 155.172 45.5224 157.747 45.5748C158.648 45.4276 158.026 45.9585 157.928 46.2956C159.337 45.3028 162.056 45.6188 164.414 45.5748C167.717 45.5748 171.02 45.5748 174.324 45.5748C181.251 45.975 184.543 50.0105 186.216 55.6649C186.636 52.6615 186.276 48.8785 186.396 45.5748M162.432 69.1785C167.035 69.0366 172.414 69.6709 175.765 68.2775C180.242 65.9914 180.689 55.7882 177.027 52.2415C174.083 49.7803 167.607 50.8507 162.432 50.6199" fill="#F2F1F3"/>
<path fill-rule="evenodd" clip-rule="evenodd" d="M107.117 74.2235C104.775 74.2235 102.432 74.2235 100.09 74.2235C100.09 72.6019 100.09 70.9803 100.09 69.3586C102.207 70.2251 104.53 71.7102 107.117 71.5208C107.117 72.4217 107.117 73.3226 107.117 74.2235Z" fill="#F2F1F3"/>
<path fill-rule="evenodd" clip-rule="evenodd" d="M126.937 68.638C128.153 69.7039 129.294 70.8452 130.36 72.0614L126.937 68.638Z" fill="#B6B3B1"/>
<path fill-rule="evenodd" clip-rule="evenodd" d="M122.432 63.9534C123.649 65.0195 124.79 66.1606 125.856 67.3768L122.432 63.9534Z" fill="#B6B3B1"/>
<path fill-rule="evenodd" clip-rule="evenodd" d="M118.108 59.4488C119.324 60.5147 120.466 61.6558 121.532 62.8722L118.108 59.4488Z" fill="#B6B3B1"/>
</svg>