<svg width="141" height="35" viewBox="0 0 141 35" fill="none" xmlns="http://www.w3.org/2000/svg">
<g clip-path="url(#clip0_16430_2285)">
<path d="M37.1008 12.1736H51.2567V14.8089H45.683V29.6644H42.6279V14.8089H37.0775L37.1008 12.1736ZM50.6504 17.001H53.2623V19.4498H53.309C53.4023 19.0999 53.5655 18.7734 53.7987 18.447C54.0319 18.1205 54.3118 17.8173 54.6616 17.5607C54.9881 17.2809 55.3612 17.071 55.781 16.9078C56.1775 16.7445 56.5973 16.6512 57.017 16.6512C57.3435 16.6512 57.5767 16.6746 57.6933 16.6746C57.81 16.6979 57.9499 16.7212 58.0665 16.7212V19.4031C57.8799 19.3565 57.67 19.3332 57.4601 19.3098C57.2502 19.2865 57.0637 19.2632 56.8538 19.2632C56.3874 19.2632 55.9443 19.3565 55.5245 19.543C55.1047 19.7296 54.7549 20.0095 54.4284 20.3593C54.1252 20.7324 53.8687 21.1755 53.6821 21.7119C53.4956 22.2483 53.4023 22.878 53.4023 23.5776V29.5944H50.6037L50.6504 17.001ZM70.8931 29.6644H68.1412V27.892H68.0946C67.7447 28.545 67.2317 29.0347 66.5554 29.4312C65.879 29.8276 65.1794 30.0142 64.4798 30.0142C62.824 30.0142 61.6113 29.6177 60.865 28.7782C60.1187 27.962 59.7456 26.7026 59.7456 25.0468V17.001H62.5441V24.767C62.5441 25.8864 62.754 26.6793 63.1971 27.1224C63.6169 27.5888 64.2232 27.822 64.9928 27.822C65.5759 27.822 66.0656 27.7287 66.4621 27.5422C66.8585 27.3556 67.185 27.1224 67.4182 26.8192C67.6748 26.516 67.838 26.1429 67.9546 25.7231C68.0712 25.3033 68.1179 24.8369 68.1179 24.3472V17.001H70.9164V29.6644H70.8931ZM75.6506 25.6065C75.7439 26.4228 76.047 26.9825 76.5834 27.3323C77.1198 27.6588 77.7728 27.822 78.5191 27.822C78.7756 27.822 79.0788 27.7987 79.4053 27.7521C79.7318 27.7054 80.0583 27.6355 80.3381 27.5189C80.6413 27.4022 80.8745 27.239 81.0611 27.0058C81.2476 26.7726 81.3409 26.4927 81.3176 26.1429C81.2943 25.7931 81.1777 25.4899 80.9211 25.2567C80.6646 25.0235 80.3614 24.8602 79.9883 24.697C79.6152 24.5571 79.1721 24.4405 78.6823 24.3472C78.1926 24.2539 77.7028 24.1373 77.1898 24.0207C76.6767 23.9041 76.1636 23.7642 75.6739 23.6009C75.1842 23.4377 74.7644 23.2278 74.3679 22.9246C73.9948 22.6447 73.6683 22.2949 73.4584 21.8518C73.2252 21.4087 73.1086 20.8957 73.1086 20.2427C73.1086 19.543 73.2718 18.9833 73.6216 18.5169C73.9481 18.0505 74.3912 17.6774 74.9043 17.3975C75.4174 17.1177 76.0004 16.9078 76.6301 16.7912C77.2597 16.6746 77.8661 16.6279 78.4258 16.6279C79.0788 16.6279 79.7085 16.6979 80.2915 16.8378C80.8745 16.9777 81.4342 17.1876 81.9006 17.5141C82.3904 17.8173 82.7868 18.2371 83.09 18.7268C83.4165 19.2165 83.6031 19.8229 83.6964 20.5225H80.7812C80.6413 19.8462 80.3381 19.4031 79.8717 19.1699C79.382 18.9367 78.8456 18.8201 78.2159 18.8201C78.0293 18.8201 77.7728 18.8434 77.5163 18.8667C77.2364 18.9134 77.0032 18.96 76.7467 19.0533C76.5135 19.1466 76.3036 19.2865 76.1403 19.4498C75.9771 19.613 75.8838 19.8462 75.8838 20.1261C75.8838 20.4759 76.0004 20.7324 76.2336 20.9423C76.4668 21.1522 76.77 21.3154 77.1665 21.4787C77.5396 21.6186 77.9827 21.7352 78.4724 21.8285C78.9622 21.9218 79.4752 22.0384 79.9883 22.155C80.5014 22.2716 80.9911 22.4115 81.4809 22.5748C81.9706 22.738 82.4137 22.9479 82.7868 23.2511C83.16 23.531 83.4865 23.8808 83.7197 24.3005C83.9529 24.7203 84.0695 25.2567 84.0695 25.8631C84.0695 26.6093 83.9062 27.239 83.5564 27.7754C83.2066 28.2885 82.7635 28.7316 82.2271 29.058C81.6907 29.3845 81.0611 29.6178 80.4081 29.781C79.7318 29.9209 79.0788 30.0142 78.4258 30.0142C77.6329 30.0142 76.8866 29.9209 76.2103 29.7344C75.534 29.5478 74.9276 29.2679 74.4379 28.9181C73.9481 28.545 73.5517 28.1019 73.2718 27.5422C72.992 27.0058 72.8287 26.3528 72.8054 25.5832H75.6273V25.6065H75.6506ZM84.8624 17.001H86.9846V13.1764H89.7832V16.9777H92.3018V19.0533H89.7832V25.8164C89.7832 26.1196 89.8065 26.3528 89.8298 26.586C89.8531 26.7959 89.9231 26.9825 89.993 27.1224C90.0863 27.2623 90.2263 27.3789 90.3895 27.4489C90.5761 27.5189 90.8093 27.5655 91.1358 27.5655C91.3223 27.5655 91.5322 27.5655 91.7188 27.5422C91.9054 27.5189 92.1153 27.4955 92.3018 27.4489V29.6178C91.9987 29.6644 91.6955 29.6877 91.3923 29.711C91.0891 29.7577 90.8093 29.7577 90.4828 29.7577C89.7365 29.7577 89.1535 29.6877 88.7104 29.5478C88.2673 29.4079 87.9175 29.198 87.6609 28.9414C87.4044 28.6616 87.2412 28.3351 87.1479 27.9386C87.0546 27.5422 87.0079 27.0524 86.9846 26.5394V19.0766H84.8624V16.9544V17.001ZM94.2608 17.001H96.8961V18.7268H96.9427C97.3392 17.9805 97.8756 17.4675 98.5752 17.141C99.2748 16.8145 100.021 16.6512 100.861 16.6512C101.863 16.6512 102.726 16.8145 103.473 17.1876C104.219 17.5374 104.825 18.0038 105.315 18.6335C105.805 19.2399 106.178 19.9628 106.411 20.7791C106.644 21.5953 106.784 22.4815 106.784 23.391C106.784 24.2539 106.668 25.0701 106.458 25.8631C106.225 26.656 105.898 27.3789 105.455 27.9853C105.012 28.5916 104.452 29.0814 103.752 29.4545C103.053 29.8276 102.26 30.0142 101.327 30.0142C100.931 30.0142 100.511 29.9676 100.114 29.8976C99.7179 29.8276 99.3215 29.711 98.9483 29.5478C98.5752 29.3845 98.2254 29.1747 97.9222 28.9181C97.5957 28.6616 97.3392 28.3584 97.1293 28.0319H97.0827V34.3519H94.2841V17.001H94.2608ZM104.032 23.3444C104.032 22.7847 103.962 22.225 103.799 21.6886C103.659 21.1522 103.426 20.6858 103.123 20.266C102.82 19.8462 102.447 19.5197 102.027 19.2632C101.584 19.0067 101.071 18.8901 100.511 18.8901C99.3448 18.8901 98.4586 19.2865 97.8523 20.1028C97.2692 20.919 96.966 22.0151 96.966 23.3677C96.966 24.0207 97.036 24.6037 97.1993 25.1401C97.3625 25.6765 97.5724 26.1429 97.8989 26.5394C98.2021 26.9358 98.5752 27.239 99.0183 27.4722C99.4614 27.7054 99.9512 27.822 100.534 27.822C101.187 27.822 101.7 27.6821 102.143 27.4256C102.586 27.169 102.936 26.8192 103.239 26.4228C103.519 26.003 103.729 25.5366 103.846 25.0002C103.962 24.4405 104.032 23.9041 104.032 23.3444ZM108.953 12.1736H111.752V14.8089H108.953V12.1736ZM108.953 17.001H111.752V29.6644H108.953V17.001ZM114.247 12.1736H117.046V29.6644H114.247V12.1736ZM125.581 30.0142C124.578 30.0142 123.669 29.851 122.876 29.5011C122.083 29.1513 121.43 28.7082 120.87 28.1252C120.334 27.5422 119.914 26.8192 119.634 26.003C119.354 25.1867 119.191 24.2772 119.191 23.3211C119.191 22.3649 119.331 21.4787 119.634 20.6625C119.914 19.8462 120.334 19.1466 120.87 18.5402C121.407 17.9572 122.083 17.4908 122.876 17.1643C123.669 16.8378 124.578 16.6512 125.581 16.6512C126.584 16.6512 127.493 16.8145 128.286 17.1643C129.079 17.4908 129.732 17.9572 130.292 18.5402C130.828 19.1233 131.248 19.8462 131.528 20.6625C131.808 21.4787 131.971 22.3649 131.971 23.3211C131.971 24.3005 131.831 25.1867 131.528 26.003C131.225 26.8192 130.828 27.5189 130.292 28.1252C129.755 28.7082 129.079 29.1747 128.286 29.5011C127.493 29.8276 126.607 30.0142 125.581 30.0142ZM125.581 27.7987C126.187 27.7987 126.747 27.6588 127.19 27.4022C127.657 27.1457 128.006 26.7959 128.31 26.3761C128.613 25.9563 128.823 25.4666 128.963 24.9535C129.102 24.4171 129.172 23.8808 129.172 23.3211C129.172 22.7847 129.102 22.2483 128.963 21.7119C128.823 21.1755 128.613 20.7091 128.31 20.2893C128.006 19.8695 127.633 19.543 127.19 19.2865C126.724 19.03 126.187 18.8901 125.581 18.8901C124.975 18.8901 124.415 19.03 123.972 19.2865C123.505 19.543 123.156 19.8929 122.852 20.2893C122.549 20.7091 122.339 21.1755 122.199 21.7119C122.06 22.2483 121.99 22.7847 121.99 23.3211C121.99 23.8808 122.06 24.4171 122.199 24.9535C122.339 25.4899 122.549 25.9563 122.852 26.3761C123.156 26.7959 123.529 27.1457 123.972 27.4022C124.438 27.6821 124.975 27.7987 125.581 27.7987ZM132.811 17.001H134.933V13.1764H137.731V16.9777H140.25V19.0533H137.731V25.8164C137.731 26.1196 137.755 26.3528 137.778 26.586C137.801 26.7959 137.871 26.9825 137.941 27.1224C138.034 27.2623 138.174 27.3789 138.338 27.4489C138.524 27.5189 138.757 27.5655 139.084 27.5655C139.27 27.5655 139.48 27.5655 139.667 27.5422C139.854 27.5189 140.063 27.4955 140.25 27.4489V29.6178C139.947 29.6644 139.644 29.6877 139.34 29.711C139.037 29.7577 138.757 29.7577 138.431 29.7577C137.685 29.7577 137.102 29.6877 136.659 29.5478C136.215 29.4079 135.866 29.198 135.609 28.9414C135.353 28.6616 135.189 28.3351 135.096 27.9386C135.003 27.5422 134.956 27.0524 134.933 26.5394V19.0766H132.811V16.9544V17.001Z" fill="black"/>
<path d="M33.8359 12.1736H21.0326L17.0913 0L13.1268 12.1736L0.323486 12.1503L10.678 19.683L6.71346 31.8566L17.068 24.3239L27.4226 31.8566L23.4813 19.683L33.8359 12.1736Z" fill="#00B67A"/>
<path d="M24.3676 22.4349L23.4814 19.683L17.0914 24.3239L24.3676 22.4349Z" fill="#005128"/>
</g>
<defs>
<clipPath id="clip0_16430_2285">
<rect width="140" height="35" fill="white" transform="matrix(-1 0 0 -1 140.25 35)"/>
</clipPath>
</defs>
</svg>