<svg width="320" height="160" viewBox="0 0 320 160" fill="none" xmlns="http://www.w3.org/2000/svg">
<rect width="320" height="160" fill="#CF3339"/>
<g clip-path="url(#clip0_7701_6803)">
<path d="M280 50H40V95.4363H280V50Z" fill="white"/>
<path d="M186.395 80.8444V87.298H161.276L175.156 64.4361H163.646V57.9798H187.913L174.103 80.8444H186.395Z" fill="#CF3339"/>
<path d="M63.3724 75.7905L70.487 57.9798H78.765L66.2472 87.298H60.3417L48.0093 57.9798H56.2927L63.3724 75.7905Z" fill="#CF3339"/>
<path d="M88.1231 57.9825H80.5006V87.298H88.1231V57.9825Z" fill="#CF3339"/>
<path d="M114.174 87.2953H104.684L97.4946 76.0108H97.414V87.2953H89.7916V57.9825H101.189C106.979 57.9825 111.375 60.7391 111.375 67.002C111.375 71.0322 109.118 74.5465 104.958 75.2827L114.174 87.2953ZM97.414 71.1209H98.1582C100.641 71.1209 103.446 70.6561 103.446 67.4668C103.446 64.2776 100.641 63.8182 98.1582 63.8182H97.414V71.1209Z" fill="#CF3339"/>
<path d="M127.428 87.298H119.811V64.4361H112.543V57.9798H134.699V64.4361H127.428V87.298Z" fill="#CF3339"/>
<path d="M161.959 57.9798V74.4659C161.959 78.2274 161.8 81.9701 158.885 84.8128C156.435 87.2309 152.587 88.0745 149.164 88.0745C145.741 88.0745 141.896 87.2201 139.446 84.8128C136.528 81.9701 136.372 78.2409 136.372 74.4659V57.9798H143.997V73.4181C143.997 77.2279 144.266 81.3871 149.164 81.3871C154.062 81.3871 154.336 77.2279 154.336 73.4181V57.9798H161.959Z" fill="#CF3339"/>
<path d="M217.736 72.0961C217.736 81.5805 210.933 88.2679 201.524 88.2679C192.115 88.2679 185.31 81.5805 185.31 72.0961C185.31 63.2297 193.088 57.0071 201.524 57.0071C209.961 57.0071 217.736 63.2297 217.736 72.0961ZM193.241 72.1472C193.241 77.1984 196.973 80.8927 201.524 80.8927C206.076 80.8927 209.802 77.1984 209.802 72.1472C209.802 68.1009 206.07 64.4066 201.524 64.4066C196.978 64.4066 193.241 68.0875 193.241 72.1472Z" fill="#CF3339"/>
<path d="M219.41 57.9798H227.027L240.99 75.906H241.066V57.9798H248.685V87.298H241.066L227.111 69.3368H227.027V87.298H219.41V57.9798Z" fill="#CF3339"/>
<path d="M258.017 64.4335V69.3368H271.456V75.7905H258.017V80.8417H271.918V87.2953H250.397V57.9798H271.918V64.4335H258.017Z" fill="#CF3339"/>
<path d="M51.212 110.082H48.0174V103.365H51.1367C52.5097 103.365 53.3533 104.047 53.3533 105.103V105.122C53.3615 105.423 53.2824 105.721 53.1256 105.978C52.9687 106.236 52.7409 106.442 52.4694 106.573C53.2485 106.871 53.7268 107.32 53.7268 108.223V108.242C53.7268 109.469 52.73 110.082 51.212 110.082ZM51.8837 105.351C51.8837 104.91 51.5397 104.66 50.9137 104.66H49.4548V106.081H50.8143C51.4672 106.081 51.889 105.869 51.889 105.369L51.8837 105.351ZM52.2598 108.037C52.2598 107.586 51.924 107.309 51.1636 107.309H49.4548V108.787H51.212C51.8648 108.787 52.2598 108.556 52.2598 108.056V108.037Z" fill="white"/>
<path d="M59.189 110.189C57.3835 110.189 56.2819 109.182 56.2819 107.204V103.362H57.7597V107.164C57.7597 108.26 58.297 108.825 59.2078 108.825C60.1187 108.825 60.6587 108.287 60.6587 107.212V103.362H62.1364V107.156C62.1364 109.19 60.9945 110.189 59.189 110.189Z" fill="white"/>
<path d="M67.4724 110.179C66.4225 110.182 65.4079 109.8 64.6217 109.104L65.4949 108.056C66.0446 108.558 66.7576 108.845 67.502 108.862C68.1065 108.862 68.4719 108.623 68.4719 108.228V108.209C68.4719 107.836 68.2408 107.642 67.1285 107.355C65.7851 107.011 64.9012 106.635 64.9012 105.302V105.281C64.9012 104.064 65.8818 103.258 67.2548 103.258C68.1609 103.243 69.0438 103.545 69.7508 104.112L68.9824 105.224C68.4791 104.833 67.8695 104.603 67.2333 104.563C66.6691 104.563 66.3708 104.832 66.3708 105.149V105.168C66.3708 105.608 66.6583 105.754 67.819 106.049C69.1839 106.406 69.9523 106.895 69.9523 108.067V108.086C69.9416 109.429 68.9233 110.179 67.4724 110.179Z" fill="white"/>
<path d="M72.7332 110.082V103.365H74.2109V110.082H72.7332Z" fill="white"/>
<path d="M82.0455 110.082L78.7892 105.81V110.082H77.3302V103.365H78.6951L81.844 107.503V103.365H83.303V110.082H82.0455Z" fill="white"/>
<path d="M86.3551 110.082V103.365H91.4224V104.682H87.8221V106.044H90.9898V107.36H87.8221V108.771H91.4708V110.085L86.3551 110.082Z" fill="white"/>
<path d="M96.616 110.179C95.566 110.183 94.5511 109.8 93.7653 109.104L94.6385 108.056C95.1882 108.558 95.9011 108.845 96.6455 108.862C97.2501 108.862 97.6155 108.623 97.6155 108.228V108.209C97.6155 107.836 97.3844 107.642 96.2721 107.355C94.9287 107.011 94.0447 106.635 94.0447 105.302V105.281C94.0447 104.064 95.0227 103.258 96.3957 103.258C97.2992 103.247 98.1781 103.552 98.8809 104.12L98.1018 105.235C97.5996 104.844 96.9908 104.613 96.3554 104.574C95.7884 104.574 95.4929 104.843 95.4929 105.16V105.179C95.4929 105.619 95.7804 105.764 96.9411 106.06C98.3033 106.417 99.0717 106.906 99.0717 108.078V108.096C99.0824 109.429 98.0668 110.179 96.616 110.179Z" fill="white"/>
<path d="M104.104 110.179C103.053 110.183 102.038 109.8 101.251 109.104L102.127 108.056C102.675 108.559 103.387 108.845 104.131 108.862C104.735 108.862 105.101 108.623 105.101 108.228V108.209C105.101 107.836 104.87 107.642 103.757 107.355C102.414 107.011 101.53 106.635 101.53 105.302V105.281C101.53 104.064 102.511 103.258 103.884 103.258C104.79 103.243 105.673 103.545 106.38 104.112L105.611 105.224C105.109 104.833 104.5 104.603 103.865 104.563C103.298 104.563 103 104.832 103 105.149V105.168C103 105.608 103.287 105.754 104.451 106.049C105.813 106.406 106.581 106.895 106.581 108.067V108.086C106.571 109.429 105.552 110.179 104.104 110.179Z" fill="white"/>
<path d="M116.007 110.179C114.957 110.183 113.942 109.8 113.156 109.104L114.029 108.056C114.578 108.558 115.29 108.844 116.033 108.862C116.638 108.862 117.003 108.623 117.003 108.228V108.209C117.003 107.836 116.772 107.642 115.66 107.355C114.317 107.011 113.435 106.635 113.435 105.302V105.281C113.435 104.064 114.413 103.258 115.786 103.258C116.692 103.243 117.575 103.545 118.282 104.112L117.514 105.224C117.012 104.833 116.403 104.603 115.767 104.563C115.2 104.563 114.902 104.832 114.902 105.149V105.168C114.902 105.608 115.19 105.754 116.353 106.049C117.715 106.406 118.484 106.895 118.484 108.067V108.086C118.473 109.429 117.447 110.179 116.007 110.179Z" fill="white"/>
<path d="M121.208 110.082V103.365H126.278V104.682H122.678V106.044H125.846V107.36H122.667V108.771H126.313V110.085L121.208 110.082Z" fill="white"/>
<path d="M132.114 104.727V110.082H130.633V104.727H128.589V103.362H134.158V104.727H132.114Z" fill="white"/>
<path d="M139.532 110.189C137.729 110.189 136.625 109.182 136.625 107.204V103.362H138.103V107.164C138.103 108.26 138.64 108.825 139.554 108.825C140.467 108.825 141.002 108.287 141.002 107.212V103.362H142.479V107.156C142.479 109.19 141.338 110.189 139.532 110.189Z" fill="white"/>
<path d="M148.028 108.067H146.905V110.082H145.427V103.365H148.173C149.785 103.365 150.744 104.316 150.744 105.689V105.708C150.744 107.261 149.535 108.067 148.028 108.067ZM149.247 105.716C149.247 105.052 148.785 104.698 148.046 104.698H146.905V106.753H148.076C148.815 106.753 149.247 106.31 149.247 105.735V105.716Z" fill="white"/>
<path d="M164.981 110.13H163.694L162.176 105.732L160.661 110.128H159.374L157.079 103.36H158.665L160.056 107.911L161.564 103.344H162.829L164.336 107.911L165.728 103.36H167.273L164.981 110.13Z" fill="white"/>
<path d="M169.877 110.082V103.365H171.354V110.082H169.877Z" fill="white"/>
<path d="M177.518 104.727V110.082H176.037V104.727H173.993V103.362H179.563V104.727H177.518Z" fill="white"/>
<path d="M186.339 110.082V107.395H183.611V110.082H182.134V103.365H183.611V106.025H186.339V103.365H187.816V110.082H186.339Z" fill="white"/>
<path d="M199.901 110.082L196.648 105.81V110.082H195.189V103.365H196.551L199.7 107.503V103.365H201.159V110.082H199.901Z" fill="white"/>
<path d="M207.476 110.198C205.401 110.198 203.913 108.653 203.913 106.742V106.724C203.913 106.258 204.006 105.797 204.187 105.368C204.368 104.94 204.634 104.552 204.968 104.227C205.302 103.903 205.698 103.649 206.132 103.481C206.566 103.312 207.029 103.233 207.494 103.247C209.569 103.247 211.054 104.794 211.054 106.705V106.724C211.055 107.189 210.961 107.649 210.78 108.078C210.599 108.506 210.334 108.894 210 109.218C209.666 109.542 209.271 109.795 208.837 109.964C208.404 110.132 207.941 110.212 207.476 110.198ZM209.509 106.724C209.519 106.45 209.474 106.178 209.376 105.922C209.278 105.667 209.13 105.433 208.94 105.236C208.751 105.039 208.523 104.882 208.271 104.775C208.02 104.668 207.749 104.612 207.476 104.612C207.204 104.611 206.935 104.665 206.685 104.771C206.435 104.876 206.208 105.032 206.02 105.227C205.831 105.423 205.684 105.655 205.588 105.909C205.491 106.162 205.447 106.433 205.458 106.705V106.724C205.448 106.997 205.494 107.27 205.592 107.525C205.69 107.781 205.839 108.014 206.029 108.211C206.219 108.408 206.446 108.565 206.698 108.672C206.95 108.779 207.221 108.835 207.494 108.835C207.766 108.836 208.035 108.782 208.285 108.676C208.535 108.571 208.761 108.415 208.949 108.22C209.138 108.024 209.284 107.792 209.381 107.538C209.477 107.284 209.521 107.014 209.509 106.742V106.724Z" fill="white"/>
<path d="M222.21 110.082L220.77 107.933H219.606V110.082H218.129V103.365H221.2C222.785 103.365 223.736 104.201 223.736 105.584V105.603C223.758 106.06 223.628 106.512 223.368 106.888C223.108 107.264 222.731 107.544 222.296 107.685L223.937 110.085L222.21 110.082ZM222.237 105.657C222.237 105.025 221.796 104.698 221.076 104.698H219.606V106.627H221.106C221.826 106.627 222.237 106.243 222.237 105.676V105.657Z" fill="white"/>
<path d="M226.509 110.082V103.365H231.579V104.682H227.978V106.044H231.146V107.36H227.978V108.771H231.635V110.085L226.509 110.082Z" fill="white"/>
<path d="M237.616 110.197C235.523 110.197 234.083 108.73 234.083 106.742V106.723C234.079 106.262 234.168 105.804 234.344 105.378C234.521 104.952 234.781 104.565 235.109 104.241C235.437 103.916 235.828 103.661 236.256 103.491C236.685 103.32 237.144 103.237 237.605 103.247C238.572 103.196 239.52 103.527 240.246 104.168L239.314 105.291C238.84 104.842 238.209 104.598 237.557 104.612C236.482 104.612 235.628 105.563 235.628 106.705V106.723C235.628 107.951 236.474 108.854 237.664 108.854C238.159 108.869 238.646 108.728 239.056 108.451V107.492H237.568V106.213H240.485V109.134C239.689 109.823 238.67 110.201 237.616 110.197Z" fill="white"/>
<path d="M247.425 110.082L245.985 107.933H244.825V110.082H243.347V103.365H246.412C247.995 103.365 248.946 104.201 248.946 105.584V105.603C248.968 106.06 248.839 106.512 248.578 106.888C248.318 107.264 247.941 107.544 247.506 107.685L249.148 110.085L247.425 110.082ZM247.455 105.657C247.455 105.025 247.012 104.698 246.294 104.698H244.825V106.627H246.321C247.041 106.627 247.455 106.243 247.455 105.676V105.657Z" fill="white"/>
<path d="M251.727 110.082V103.365H256.794V104.682H253.194V106.044H256.354V107.36H253.194V108.771H256.843V110.085L251.727 110.082Z" fill="white"/>
<path d="M262.641 104.727V110.082H261.16V104.727H259.116V103.362H264.683V104.727H262.641Z" fill="white"/>
<path d="M269.503 110.179C268.453 110.182 267.438 109.8 266.652 109.104L267.528 108.056C268.076 108.559 268.789 108.845 269.532 108.862C270.137 108.862 270.502 108.623 270.502 108.228V108.209C270.502 107.836 270.271 107.642 269.159 107.355C267.815 107.011 266.931 106.635 266.931 105.302V105.281C266.931 104.064 267.912 103.258 269.285 103.258C270.191 103.243 271.074 103.545 271.781 104.112L271.013 105.224C270.51 104.834 269.902 104.603 269.266 104.563C268.699 104.563 268.401 104.832 268.401 105.149V105.168C268.401 105.608 268.689 105.754 269.849 106.049C271.214 106.406 271.983 106.895 271.983 108.067V108.086C271.972 109.429 270.954 110.179 269.503 110.179Z" fill="white"/>
</g>
<defs>
<clipPath id="clip0_7701_6803">
<rect width="240" height="60.1975" fill="white" transform="translate(40 50)"/>
</clipPath>
</defs>
</svg>